Coordinates
version=1
nRows=14
nColumns=36
inDegrees=yes

Units are S.I. units (second, meters, Newtons, ...)
If the header above contains a line with 'inDegrees', this indicates whether rotational values are in degrees (yes) or radians (no).

endheader
time	pelvis_tilt	pelvis_list	pelvis_rotation	pelvis_tx	pelvis_ty	pelvis_tz	hip_flexion_r	hip_adduction_r	hip_rotation_r	knee_angle_r	knee_angle_r_beta	ankle_angle_r	subtalar_angle_r	mtp_angle_r	hip_flexion_l	hip_adduction_l	hip_rotation_l	knee_angle_l	knee_angle_l_beta	ankle_angle_l	subtalar_angle_l	mtp_angle_l	lumbar_extension	lumbar_bending	lumbar_rotation	arm_flex_r	arm_add_r	arm_rot_r	elbow_flex_r	pro_sup_r	arm_flex_l	arm_add_l	arm_rot_l	elbow_flex_l	pro_sup_l
      0.00000000	     -3.71325394	      2.33845900	     10.38420825	     -0.27213911	      0.92480222	     -0.23426862	     30.93047217	     -5.77393336	     -3.89499071	      3.79899146	      0.06630491	     -0.32037633	     -6.81592699	     -4.71569073	     -9.61611790	      4.23038541	      3.39058517	      7.52960884	      0.13141647	     18.29963068	      9.87109990	     -4.71569073	     -7.38535028	     -4.45428091	    -12.16182070	    -13.73354949	     -9.93443091	      6.17562503	     30.79476752	    105.72198963	     12.92890441	    -14.04097901	      7.29276199	     61.15415030	     98.52803785
      0.01000000	     -3.85876697	      2.26255141	     10.97128258	     -0.25815228	      0.92171738	     -0.23415726	     31.00952461	     -5.99792493	     -4.14438494	      2.53358550	      0.04421941	      0.28628048	     -6.59809393	     -4.74322092	    -10.00801353	      3.82974707	      3.80184526	      8.26634575	      0.14427495	     18.68271940	      9.83906323	     -4.74322092	     -7.24306605	     -4.35357310	    -12.60926576	    -14.28432615	     -9.86291176	      6.10755896	     30.29672768	    105.71735507	     13.41530206	    -14.02635095	      7.29700927	     61.56430929	     98.74946376
      0.02000000	     -3.89894804	      2.16908099	     11.55258254	     -0.24395357	      0.91872949	     -0.23410818	     31.12022451	     -6.22416959	     -5.07436563	      1.81709347	      0.03171426	      1.51086706	     -5.23719193	     -4.90318532	    -10.45581255	      3.35359000	      3.88746529	      9.11060624	      0.15901008	     19.41769463	     10.42717267	     -4.90318532	     -7.19524568	     -4.20960069	    -13.14161007	    -14.71960974	     -9.69191707	      5.58093718	     29.72288566	    105.74455151	     13.72841796	    -13.96475455	      7.04689379	     62.04230925	     99.78290811
      0.03000000	     -3.95993290	      2.08345379	     12.05289492	     -0.22958622	      0.91576938	     -0.23385120	     31.23921544	     -6.37137287	     -5.40689651	      1.44408229	      0.02520399	      1.90394954	     -5.37572180	     -4.91849088	    -10.94751825	      2.91951484	      4.28089431	      9.82795053	      0.17153010	     19.51452330	     10.37449208	     -4.91849088	     -7.12410385	     -4.08306775	    -13.41772773	    -15.31585670	     -9.61191050	      5.49876017	     29.37017192	    105.72023535	     14.13417368	    -13.81508136	      7.00642563	     62.42558630	     99.90437117
      0.04000000	     -3.91969169	      1.83304178	     12.62273580	     -0.21491189	      0.91306900	     -0.23359305	     31.27155351	     -6.36068804	     -6.03438604	      1.64364780	      0.02868707	      2.17057186	     -5.61507137	     -4.95949323	    -11.38584059	      2.25799894	      4.62114122	     10.82245310	      0.18888744	     19.94569783	     10.16526193	     -4.95949323	     -7.06936370	     -3.75282312	    -13.94430598	    -15.72698796	     -9.48477375	      5.03383677	     28.98865500	    105.63301679	     14.27681706	    -13.73549539	      6.82467950	     62.76936380	    100.15593267
      0.05000000	     -3.83559251	      1.61566095	     13.04450464	     -0.19982601	      0.91058013	     -0.23308038	     31.26422698	     -6.26303052	     -6.35689483	      2.32531707	      0.04058444	      2.16839227	     -6.11978180	     -4.97577653	    -11.93485831	      1.64182473	      4.99476689	     11.70352696	      0.20426508	     19.80873794	     10.08363079	     -4.97577653	     -7.05155321	     -3.47806342	    -14.12931847	    -16.27560154	     -9.38639864	      4.84372160	     28.72290040	    105.58738817	     14.40407873	    -13.48259541	      6.65553927	     63.11979144	    100.26512531
      0.06000000	     -3.82299190	      1.30109041	     13.43427986	     -0.18443669	      0.90815537	     -0.23237812	     31.39641750	     -6.00734129	     -6.54658890	      3.48168254	      0.06076682	      1.13396491	     -8.16260722	     -5.10526283	    -12.25302910	      0.94932794	      5.25694833	     12.87027809	      0.22462873	     19.72779180	      9.62354760	     -5.10526283	     -6.90137671	     -3.07696449	    -14.57604760	    -16.75833644	     -9.10049415	      3.47424594	     28.79801897	    105.40642619	     13.95899542	    -13.20957816	      5.66713975	     63.74658960	    100.90317573
      0.07000000	     -3.64717858	      0.97050334	     13.69933210	     -0.16874851	      0.90615527	     -0.23149723	     31.40249342	     -5.64632431	     -6.75674725	      5.04664014	      0.08808049	      0.60373942	     -8.74849005	     -5.11878366	    -12.79521522	      0.22630222	      5.62770709	     13.92103633	      0.24296792	     19.32122293	      9.40113054	     -5.11878366	     -6.88644564	     -2.65659854	    -14.65426206	    -17.20330213	     -9.04754706	      3.37888993	     28.63300329	    105.38694856	     13.82901077	    -12.96147399	      5.56188160	     63.90067054	    100.96661008
      0.08000000	     -3.85228478	      0.62124683	     13.98044599	     -0.15290009	      0.90394044	     -0.23047276	     31.87951579	     -5.28528818	     -6.85479188	      6.79749765	      0.11863871	     -1.61542648	    -11.58704104	     -5.20896977	    -12.68985236	     -0.37393639	      6.05928881	     15.42593175	      0.26923330	     18.51870242	      7.95215406	     -5.20896977	     -6.38527463	     -2.32055517	    -14.99796689	    -17.65045620	     -8.86826567	      2.46593802	     28.76424142	    105.27938292	     13.06766694	    -12.65084273	      4.51620983	     64.43389919	    101.28857744
      0.09000000	     -3.68888766	      0.21666459	     14.11572594	     -0.13678124	      0.90250351	     -0.22921944	     31.97889528	     -4.73859930	     -7.19045900	      8.66070397	      0.15115780	     -2.96748832	    -12.55490546	     -5.23621831	    -12.94705113	     -1.13102245	      6.24639547	     16.92529841	      0.29540218	     17.46883906	      7.29846437	     -5.23621831	     -6.29285119	     -1.84929631	    -14.99782961	    -17.98466958	     -8.74880293	      2.28247641	     28.69131523	    105.25532170	     12.58297111	    -12.34665399	      4.19915262	     64.58836391	    101.36682413
      0.10000000	     -3.81514952	     -0.20114420	     14.16007515	     -0.12064135	      0.90115763	     -0.22763342	     32.23546353	     -4.04773067	     -6.46659601	     10.13307905	      0.17685559	     -6.07754403	    -15.62738379	     -5.33840005	    -12.83040105	     -1.70007468	      7.01307995	     18.51997124	      0.32323448	     15.74490724	      5.22585798	     -5.33840005	     -5.88526479	     -1.43813813	    -15.27486174	    -18.11762035	     -8.59808924	      1.68327013	     28.71291802	    105.19860074	     11.50448685	    -12.04530117	      3.01247367	     65.07558376	    101.60895624
      0.11000000	     -3.80136672	     -0.68342596	     14.13136655	     -0.10442877	      0.90037804	     -0.22597409	     32.41603442	     -3.26934244	     -6.13624477	     11.77274148	      0.20547310	     -8.22465958	    -17.35124604	     -5.43251079	    -12.62279707	     -2.37174367	      7.40870059	     20.46559818	      0.35719207	     13.83083439	      3.67769648	     -5.43251079	     -5.61758181	     -0.92604116	    -15.34104196	    -18.17754624	     -8.52951183	      1.58015141	     28.60435303	    105.20027508	     10.58854595	    -11.74502484	      2.26658869	     65.22162300	    101.76708891
      0.12000000	     -3.51636067	     -1.19943334	     14.03696046	     -0.08824516	      0.90032360	     -0.22422251	     32.34267942	     -2.40163057	     -6.05679864	     13.55305331	      0.23654540	     -9.09971837	    -17.80186678	     -5.45086933	    -12.44647599	     -3.17202310	      7.42848527	     22.79047599	      0.39776884	     11.98688925	      3.04391752	     -5.45086933	     -5.68820647	     -0.30803226	    -15.14520949	    -18.19128365	     -8.47710093	      1.56149453	     28.50557469	    105.18694046	      9.89038669	    -11.47416619	      1.97673635	     65.09605338	    101.76057419
      0.13000000	     -3.45780011	     -1.80569518	     13.84207186	     -0.07220399	      0.90040094	     -0.22238021	     32.50815248	     -1.41640639	     -5.68233731	     15.31604886	      0.26731548	    -10.04077196	    -18.83135651	     -5.47529911	    -11.71812689	     -3.92289832	      7.45928092	     25.56455973	      0.44618574	      9.52724618	      1.74697523	     -5.47529911	     -5.49510349	      0.40119049	    -15.02240055	    -18.04113224	     -8.42913229	      1.49599545	     28.44347268	    105.16014467	      8.90791353	    -11.12408682	      1.37705654	     64.93792120	    101.73117765
